# xmcd
#
# Track frame offsets: 
#        150
#        11444
#        23989
#        36052
#        48441
#        60290
#        72307
#        84273
#        92017
#        105276
#        117797
#        129621
#        139736
#        150965
#        162627
#        173915
#        185262
#        198703
#
# Disc length: 2814 seconds
#
# Revision: 0
# Processed by: cddbd v1.5.1PL2 Copyright (c) Steve Scherf et al.
# Submitted via: ExactAudioCopy v0.95a5
#
DISCID=e10afc12
DTITLE=Hank Williams - The very best of Hank Williams 1
DYEAR=1900
DGENRE=Country
TTITLE0=Weary blues from waitin'
TTITLE1=I won't be home no more
TTITLE2=Take these chains from my heart
TTITLE3=Your cheatin' heart
TTITLE4=Kaw-liga
TTITLE5=You win again
TTITLE6=Settin' the woods on fire
TTITLE7=Jesus is calling
TTITLE8=Jambalaya
TTITLE9=Half as much
TTITLE10=Window shopping
TTITLE11=Honky tonk blues
TTITLE12=I'll never get out of this world alive
TTITLE13=Baby, we're really in love
TTITLE14=Lonesome whistle
TTITLE15=Crazy heart
TTITLE16=Hey good lookin'
TTITLE17=Howlin' at the moon
EXTD=
EXTT0=
EXTT1=
EXTT2=
EXTT3=
EXTT4=
EXTT5=
EXTT6=
EXTT7=
EXTT8=
EXTT9=
EXTT10=
EXTT11=
EXTT12=
EXTT13=
EXTT14=
EXTT15=
EXTT16=
EXTT17=
PLAYORDER=
